<svg width="23" height="23" viewBox="0 0 23 23" fill="none" xmlns="http://www.w3.org/2000/svg">
<g clip-path="url(#clip0_653_56378)">
<path d="M22.7684 11.7645C22.7684 10.9828 22.705 10.1968 22.5698 9.42773H11.7227V13.8562H17.9343C17.6765 15.2844 16.8483 16.5479 15.6356 17.3508V20.2242H19.3414C21.5176 18.2212 22.7684 15.2633 22.7684 11.7645Z" fill="#4285F4"/>
<path d="M11.7259 23.0004C14.8275 23.0004 17.4432 21.9821 19.3489 20.2242L15.643 17.3508C14.612 18.0523 13.2809 18.4495 11.7301 18.4495C8.72995 18.4495 6.18613 16.4254 5.2734 13.7041H1.44922V16.6663C3.40145 20.5496 7.37775 23.0004 11.7259 23.0004Z" fill="#34A853"/>
<path d="M5.26592 13.7041C4.7842 12.2759 4.7842 10.7293 5.26592 9.30102V6.33887H1.44597C-0.185115 9.58836 -0.185115 13.4168 1.44597 16.6663L5.26592 13.7041Z" fill="#FBBC04"/>
<path d="M11.7259 4.55078C13.3654 4.52543 14.95 5.14237 16.1374 6.27483L19.4207 2.99153C17.3417 1.0393 14.5824 -0.0340065 11.7259 -0.000201591C7.37775 -0.000201591 3.40145 2.45065 1.44922 6.33822L5.26917 9.30037C6.17768 6.57485 8.72572 4.55078 11.7259 4.55078Z" fill="#EA4335"/>
</g>
<defs>
<clipPath id="clip0_653_56378">
<rect width="22.5436" height="23" fill="white" transform="translate(0.226562)"/>
</clipPath>
</defs>
</svg>
