<svg xmlns="http://www.w3.org/2000/svg" fill="none" viewBox="0 0 23 23"><g clip-path="url(#a)"><path fill="#4285F4" d="M22.77 11.76c0-.78-.07-1.56-.2-2.33H11.72v4.43h6.21a5.32 5.32 0 0 1-2.3 3.5v2.86h3.71c2.18-2 3.43-4.96 3.43-8.46Z"/><path fill="#34A853" d="M11.73 23a11 11 0 0 0 7.62-2.78l-3.7-2.87a6.88 6.88 0 0 1-3.92 1.1c-3 0-5.54-2.02-6.46-4.75H1.45v2.97A11.5 11.5 0 0 0 11.73 23Z"/><path fill="#FBBC04" d="M5.27 13.7a6.89 6.89 0 0 1 0-4.4V6.34H1.45a11.51 11.51 0 0 0 0 10.33l3.82-2.97Z"/><path fill="#EA4335" d="M11.73 4.55c1.64-.02 3.22.6 4.4 1.72L19.44 3A11.05 11.05 0 0 0 11.72 0 11.5 11.5 0 0 0 1.45 6.34L5.27 9.3a6.88 6.88 0 0 1 6.46-4.75Z"/></g><defs><clipPath id="a"><path fill="#fff" d="M.23 0h22.54v23H.23z"/></clipPath></defs></svg>