<svg xmlns="http://www.w3.org/2000/svg" width="160" height="40" viewBox="0 0 160 40"><path fill="#fff" d="M48.2 20.3h7.6v2.9h-7.6v8.4h-3.3V11.4h14.5v2.9H48.2zM110.8 22v9.5h-3.1v-8.9c0-2.2-1.5-3.6-3.4-3.6-2.5 0-4.1 1.7-4.1 5.1v7.4H97v-8.9c0-2.2-1.5-3.6-3.4-3.6-2.4 0-4 1.7-4 5.1v7.4h-3.2v-15h3.2v1.7c1.1-1.3 2.7-2.1 4.8-2.1 2.2 0 4 1 5 2.7 1.2-1.7 3.1-2.7 5.6-2.7 3.3.1 5.8 2.4 5.8 5.9M145.5 22.5v9h-3.2v-8.4c0-2.4-1.4-4.1-3.6-4.1-2.7 0-4.5 1.8-4.5 5.6v6.9H131v-15h3.2v1.8c1.2-1.4 3-2.3 5.2-2.3 3.7.2 6.1 2.8 6.1 6.5M84.5 16.6c-.3-.1-.5-.1-.8-.1-2.6 0-4.5 1.4-5.7 3.4v-3.3h-3.2v15H78v-5.2c0-4.1 1.9-6.8 5.7-6.8h.9v-3zM65.2 19.2c-2.7 0-4.8 2.2-4.8 4.9s2.2 4.9 4.8 4.9c2.7 0 4.8-2.2 4.8-4.9.1-2.7-2.1-4.9-4.8-4.9m7.9 4.9c0 4.3-3.5 7.8-7.9 7.8s-7.9-3.5-7.9-7.8 3.5-7.8 7.9-7.8 7.9 3.5 7.9 7.8M120.3 29c-2.7 0-4.8-2.2-4.8-4.9s2.2-4.9 4.8-4.9c2.7 0 4.8 2.2 4.8 4.9s-2.2 4.9-4.8 4.9zm4.9-12.4V18a8.04 8.04 0 0 0-5-1.8c-4.4 0-7.9 3.5-7.9 7.8s3.5 7.8 7.9 7.8c1.9 0 3.6-.7 5-1.8v1.3h3.2v-15h-3.2zM157.7 28.2c-.8.5-1.8.8-2.5.8-1.5 0-2.5-.9-2.5-2.8v-6.7h5.2v-2.9h-5.2V12h-3.2v4.6h-3.2v2.9h3.2v6.9c0 3.7 2.2 5.5 5.4 5.5 1.3 0 2.3-.3 3.7-1.1l-.9-2.6zM1.2 36h18.7l-9.3-22.2zM23 15.3c-2.6 0-4.6 2.1-4.6 4.6 0 2.6 2.1 4.6 4.6 4.6 2.6 0 4.6-2.1 4.6-4.6.1-2.6-2-4.6-4.6-4.6zM10.6 4.2h23.5v7.2H10.6z"/></svg>