<?xml version="1.0" encoding="UTF-8" standalone="no"?>
<!DOCTYPE svg PUBLIC "-//W3C//DTD SVG 1.1//EN" "http://www.w3.org/Graphics/SVG/1.1/DTD/svg11.dtd">
<svg width="100%" height="100%" viewBox="0 0 131 33" version="1.1" xmlns="http://www.w3.org/2000/svg" xmlns:xlink="http://www.w3.org/1999/xlink" xml:space="preserve" xmlns:serif="http://www.serif.com/" style="fill-rule:evenodd;clip-rule:evenodd;stroke-linejoin:round;stroke-miterlimit:2;">
    <g transform="matrix(1.00037,0,0,1,-45.0165,-144.589)">
        <g id="Default">
            <path d="M168.76,147.972L168.76,153.239L174.678,153.239L174.678,156.558L168.76,156.558L168.76,164.185C168.76,166.306 169.908,167.332 171.614,167.332C172.519,167.332 173.634,166.99 174.538,166.408L175.652,169.385C174.016,170.342 172.832,170.684 171.37,170.684C167.646,170.684 165.139,168.631 165.139,164.424L165.139,156.558L161.415,156.558L161.415,153.239L165.139,153.239L165.139,147.972L168.76,147.972ZM68.324,152.863C73.328,152.863 77.384,156.849 77.384,161.766C77.384,166.683 73.328,170.668 68.324,170.668C63.32,170.668 59.264,166.683 59.264,161.766C59.264,156.849 63.32,152.863 68.324,152.863ZM131.516,152.863C133.681,152.863 135.669,153.611 137.227,154.857L137.227,153.24L140.847,153.24L140.847,170.205L137.227,170.205L137.227,168.675C135.669,169.921 133.681,170.669 131.516,170.669C126.512,170.669 122.456,166.682 122.456,161.766C122.456,156.849 126.512,152.863 131.516,152.863ZM114.149,152.761C117.735,152.761 120.693,155.394 120.693,159.396L120.693,170.205L117.108,170.205L117.108,160.115C117.108,157.618 115.437,156.045 113.209,156.045C110.39,156.045 108.544,157.994 108.544,161.791L108.544,170.205L104.925,170.205L104.925,160.115C104.925,157.618 103.254,156.045 101.026,156.045C98.241,156.045 96.431,157.994 96.431,161.791L96.431,170.205L92.812,170.205L92.812,153.239L96.431,153.239L96.431,155.155C97.685,153.651 99.495,152.761 101.965,152.761C104.438,152.761 106.596,153.89 107.709,155.874C109.102,153.958 111.294,152.761 114.149,152.761ZM153.597,152.761C157.74,152.761 160.525,155.702 160.525,159.943L160.525,170.205L156.869,170.205L156.869,160.662C156.869,157.891 155.233,156.044 152.762,156.044C149.664,156.044 147.61,158.097 147.61,162.373L147.61,170.205L143.99,170.205L143.99,153.239L147.61,153.239L147.61,155.326C149.003,153.684 151.022,152.761 153.597,152.761ZM61.658,147.288L61.658,150.606L48.725,150.606L48.725,157.413L57.519,157.413L57.519,160.731L48.725,160.731L48.725,170.205L45,170.205L45,147.288L61.658,147.288ZM89.512,153.164C89.845,153.164 90.136,153.168 90.469,153.237L90.469,156.719C90.191,156.688 89.785,156.687 89.477,156.687C85.091,156.687 82.933,159.697 82.933,164.349L82.933,170.205L79.313,170.205L79.313,153.239L82.933,153.239L82.933,156.995C84.326,154.737 86.519,153.164 89.512,153.164ZM68.324,156.187C65.267,156.187 62.789,158.684 62.789,161.766C62.789,164.847 65.267,167.344 68.324,167.344C71.382,167.344 73.86,164.847 73.86,161.766C73.86,158.684 71.382,156.187 68.324,156.187ZM131.516,156.187C128.459,156.187 125.98,158.685 125.98,161.766C125.98,164.847 128.459,167.345 131.516,167.345C134.573,167.345 137.051,164.847 137.051,161.766C137.051,158.685 134.573,156.187 131.516,156.187Z" style="fill:white;"/>
        </g>
    </g>
</svg>
