<svg width="24" height="24" viewBox="0 0 24 24" fill="none" xmlns="http://www.w3.org/2000/svg">
<path d="M13.5 7.70029V7.69974C13.5 6.87146 12.8286 6.20001 12.0003 6.20001C11.172 6.20001 10.5005 6.87146 10.5005 7.69974V7.70029C10.5005 8.52856 11.172 9.20001 12.0003 9.20001C12.8286 9.20001 13.5 8.52856 13.5 7.70029Z" fill="white"/>
<path fill-rule="evenodd" clip-rule="evenodd" d="M19.3001 2.95221C20.1357 4.28577 20.6188 5.86274 20.6188 7.55253C20.6188 9.20944 20.1543 10.7579 19.3485 12.0747L18.4752 11.5855C19.2003 10.4135 19.6188 9.0319 19.6188 7.55253C19.6188 6.04024 19.1814 4.63009 18.4264 3.44165L19.3001 2.95221ZM4.56629 12.1225C3.74235 10.7954 3.26656 9.22951 3.26656 7.55253C3.26656 5.84265 3.76119 4.2483 4.61518 2.90475L5.48925 3.39438C4.71559 4.59262 4.26656 6.02014 4.26656 7.55253C4.26656 9.05198 4.6965 10.451 5.43981 11.6331L4.56629 12.1225ZM17.4523 11.0124C18.083 10.0103 18.4478 8.82402 18.4478 7.55255C18.4478 6.24809 18.0638 5.03331 17.4027 4.01505L16.528 4.50505C17.1091 5.37764 17.4478 6.42555 17.4478 7.55255C17.4478 8.64651 17.1287 9.66594 16.5785 10.5228L17.4523 11.0124ZM7.33746 10.5699L6.46311 11.0598C5.81401 10.0478 5.43761 8.84411 5.43761 7.55255C5.43761 6.22797 5.8335 4.99586 6.51342 3.96808L7.38877 4.45842C6.78848 5.3402 6.43761 6.4054 6.43761 7.55255C6.43761 8.66662 6.76854 9.70339 7.33746 10.5699ZM15.5552 9.94953C16.0111 9.26332 16.2767 8.43974 16.2767 7.55413V7.55254C16.2767 6.63328 15.9905 5.78087 15.5024 5.07955L14.6245 5.57132C15.0344 6.12522 15.2767 6.81058 15.2767 7.55254V7.55413C15.2767 8.26231 15.0559 8.91893 14.6794 9.45889L15.5552 9.94953ZM9.23858 9.50484L8.36162 9.99615C7.8865 9.30076 7.60865 8.45989 7.60865 7.55413V7.55254C7.60865 6.61308 7.90755 5.74344 8.41545 5.03353L9.2949 5.52617C8.86445 6.08777 8.60865 6.79028 8.60865 7.55254V7.55413C8.60865 8.28253 8.84224 8.95637 9.23858 9.50484Z" fill="white"/>
<path fill-rule="evenodd" clip-rule="evenodd" d="M13.1257 17.5H11V16.5H13.1257V17.5Z" fill="white"/>
<path fill-rule="evenodd" clip-rule="evenodd" d="M5 15C5 13.8954 5.89543 13 7 13H17C18.1046 13 19 13.8954 19 15V19C19 20.1046 18.1046 21 17 21H7C5.89543 21 5 20.1046 5 19V15ZM17 15H7V19H17V15Z" fill="white"/>
</svg>
