<svg xmlns="http://www.w3.org/2000/svg" viewBox="0 0 160 40" width="160" height="40">
    <polygon
        fill="#fff"
        points="48.2,20.3 55.8,20.3 55.8,23.2 48.2,23.2 48.2,31.6 44.9,31.6 44.9,11.4 59.4,11.4 
	59.4,14.3 48.2,14.3 "
    />
    <path
        fill="#fff"
        d="M110.8,22v9.5h-3.1v-8.9c0-2.2-1.5-3.6-3.4-3.6c-2.5,0-4.1,1.7-4.1,5.1v7.4h-3.2v-8.9
	c0-2.2-1.5-3.6-3.4-3.6c-2.4,0-4,1.7-4,5.1v7.4h-3.2v-15h3.2v1.7c1.1-1.3,2.7-2.1,4.8-2.1c2.2,0,4,1,5,2.7c1.2-1.7,3.1-2.7,5.6-2.7
	C108.3,16.2,110.8,18.5,110.8,22"
    />
    <path
        fill="#fff"
        d="M145.5,22.5v9h-3.2v-8.4c0-2.4-1.4-4.1-3.6-4.1c-2.7,0-4.5,1.8-4.5,5.6v6.9h-3.2v-15h3.2v1.8
	c1.2-1.4,3-2.3,5.2-2.3C143.1,16.2,145.5,18.8,145.5,22.5"
    />
    <path
        fill="#fff"
        d="M84.5,16.6c-0.3-0.1-0.5-0.1-0.8-0.1c-2.6,0-4.5,1.4-5.7,3.4v-3.3h-3.2v15H78v-5.2
	c0-4.1,1.9-6.8,5.7-6.8c0.3,0,0.6,0,0.9,0V16.6z"
    />
    <path
        fill="#fff"
        d="M65.2,19.2c-2.7,0-4.8,2.2-4.8,4.9c0,2.7,2.2,4.9,4.8,4.9c2.7,0,4.8-2.2,4.8-4.9
	C70.1,21.4,67.9,19.2,65.2,19.2 M73.1,24.1c0,4.3-3.5,7.8-7.9,7.8c-4.4,0-7.9-3.5-7.9-7.8c0-4.3,3.5-7.8,7.9-7.8
	C69.6,16.3,73.1,19.8,73.1,24.1"
    />
    <path
        fill="#fff"
        d="M120.3,29c-2.7,0-4.8-2.2-4.8-4.9s2.2-4.9,4.8-4.9c2.7,0,4.8,2.2,4.8,4.9S122.9,29,120.3,29z
	 M125.2,16.6V18c-1.4-1.1-3.1-1.8-5-1.8c-4.4,0-7.9,3.5-7.9,7.8c0,4.3,3.5,7.8,7.9,7.8c1.9,0,3.6-0.7,5-1.8v1.3h3.2v-15H125.2z"
    />
    <path
        fill="#fff"
        d="M157.7,28.2c-0.8,0.5-1.8,0.8-2.5,0.8c-1.5,0-2.5-0.9-2.5-2.8v-6.7h5.2v-0.3v-2.6h-5.2V12h-3.2
	v4.6h-3.2v2.6v0.3h3.2v6.9c0,3.7,2.2,5.5,5.4,5.5c1.3,0,2.3-0.3,3.7-1.1L157.7,28.2z"
    />
    <polygon fill="#fff" points="1.2,36 19.9,36 10.6,13.8 " />
    <path
        fill="#fff"
        d="M23,15.3c-2.6,0-4.6,2.1-4.6,4.6c0,2.6,2.1,4.6,4.6,4.6c2.6,0,4.6-2.1,4.6-4.6C27.7,17.3,25.6,15.3,23,15.3z"
    />
    <rect fill="#fff" x="10.6" y="4.2" width="23.5" height="7.2" />
</svg>
